<?xml version="1.0" encoding="UTF-8"?>
<svg version="1.1" xmlns="http://www.w3.org/2000/svg" width="200" height="200">
<path d="M0 0 C66 0 132 0 200 0 C200 66 200 132 200 200 C134 200 68 200 0 200 C0 134 0 68 0 0 Z " fill="#020202" transform="translate(0,0)"/>
<path d="M0 0 C0.495 1.485 0.495 1.485 1 3 C-9.91997229 9.48958353 -20.92256302 15.82787892 -31.96368408 22.10839844 C-40.2256709 26.80951225 -48.42454104 31.590709 -56.5078125 36.59375 C-59 38 -59 38 -61 38 C-61 61.76 -61 85.52 -61 110 C-59.35 110.66 -57.7 111.32 -56 112 C-55.195625 112.556875 -54.39125 113.11375 -53.5625 113.6875 C-50.29357 115.36183 -48.48829005 114.89235327 -45 114 C-45 113.34 -45 112.68 -45 112 C-46.63766991 111.24319712 -48.28604719 110.50951567 -49.93896484 109.78662109 C-53.36558916 107.77899927 -54.75021365 106.84193948 -55.89385986 102.98712158 C-56.15816498 99.10755012 -56.12579516 95.29379449 -55.9765625 91.4140625 C-55.9578924 89.98779269 -55.94366664 88.5614584 -55.9336853 87.13510132 C-55.8956431 83.39492234 -55.79756341 79.65867667 -55.68664551 75.92004395 C-55.58402683 72.09958111 -55.53860978 68.27847731 -55.48828125 64.45703125 C-55.38128507 56.96956779 -55.21081281 49.48533654 -55 42 C-54.19595734 41.54120453 -53.39191467 41.08240906 -52.56350708 40.60971069 C-39.28114769 33.03011488 -26.00335446 25.44272499 -12.75 17.8125 C-11.6873291 17.20204834 -10.6246582 16.59159668 -9.52978516 15.96264648 C-4.47401724 13.04810207 0.5188133 10.1003602 5.37011719 6.85424805 C7 6 7 6 10 6 C9.83178711 7.78979492 9.83178711 7.78979492 9 10 C6.72875977 11.68481445 6.72875977 11.68481445 3.69140625 13.36328125 C2.56355713 13.99596924 1.43570801 14.62865723 0.27368164 15.28051758 C-0.96332061 15.95795152 -2.20038256 16.63527645 -3.4375 17.3125 C-4.69814433 18.01509146 -5.95798325 18.71912987 -7.21704102 19.42456055 C-9.8282864 20.88673637 -12.44251055 22.34337487 -15.05859375 23.796875 C-21.22482391 27.23251975 -27.32900841 30.77559124 -33.4375 34.3125 C-35.06933228 35.25379761 -35.06933228 35.25379761 -36.73413086 36.21411133 C-40.87068014 38.6008245 -40.87068014 38.6008245 -45 41 C-45.86178864 41.40652802 -46.72357727 41.81305603 -47.61148071 42.23190308 C-50.23596457 43.78637401 -50.23596457 43.78637401 -50.66856384 46.59822083 C-50.68762283 47.63935532 -50.70668182 48.68048981 -50.72631836 49.75317383 C-50.75821762 50.9348262 -50.79011688 52.11647858 -50.82298279 53.3339386 C-50.83132896 55.25111946 -50.83132896 55.25111946 -50.83984375 57.20703125 C-50.86480675 59.17696297 -50.86480675 59.17696297 -50.89027405 61.18669128 C-50.92021341 63.96850098 -50.92947625 66.7495347 -50.92651367 69.53149414 C-50.9260062 73.08758208 -50.99416019 76.63866113 -51.08037472 80.19356251 C-51.14955489 83.59395688 -51.14642329 86.99344277 -51.15234375 90.39453125 C-51.18827133 91.66657913 -51.22419891 92.93862701 -51.26121521 94.2492218 C-51.28573243 100.86279119 -51.28573243 100.86279119 -47.84109497 106.19662476 C-43.16726903 109.18593124 -43.16726903 109.18593124 -37.79307556 109.90534973 C-35.66227614 109.37655121 -35.66227614 109.37655121 -33 108 C-33 107.34 -33 106.68 -33 106 C-34.299375 105.62875 -34.299375 105.62875 -35.625 105.25 C-39.52375492 103.8060167 -41.92065231 102.84782373 -45 100 C-46.005143 96.1982183 -46.00775679 92.43255301 -46.04296875 88.515625 C-46.07648186 86.82128326 -46.07648186 86.82128326 -46.110672 85.0927124 C-46.14542506 82.70228729 -46.16369626 80.31157422 -46.16674805 77.92089844 C-46.1873694 74.27310171 -46.3090164 70.63764629 -46.43554688 66.9921875 C-46.71490159 50.74186097 -46.71490159 50.74186097 -43.88018799 46.20959473 C-40.53941769 42.92349935 -36.31838878 41.56803909 -32 40 C-29.75817112 38.75419509 -27.53880682 37.46710613 -25.34375 36.140625 C-23.06395119 34.84120062 -20.78266443 33.54438381 -18.5 32.25 C-16.05304463 30.86127665 -13.60650764 29.47181824 -11.16015625 28.08203125 C-10.55603409 27.73914566 -9.95191193 27.39626007 -9.32948303 27.04298401 C-5.40819641 24.81342082 -1.50925694 22.54876539 2.37890625 20.26171875 C3.34441406 19.69743164 4.30992188 19.13314453 5.3046875 18.55175781 C7.10499932 17.4979634 8.90081617 16.43644104 10.69140625 15.36621094 C11.48546875 14.90375977 12.27953125 14.44130859 13.09765625 13.96484375 C13.78351807 13.5587085 14.46937988 13.15257324 15.17602539 12.73413086 C17 12 17 12 20 13 C20 13.66 20 14.32 20 15 C19.33170166 15.3717334 18.66340332 15.7434668 17.97485352 16.12646484 C1.03058267 25.41292381 1.03058267 25.41292381 -15.5896759 35.25827026 C-19.26897072 37.51720114 -22.87552858 39.41322899 -26.88598633 41.02148438 C-36.11600362 44.89793416 -36.11600362 44.89793416 -42.07128906 52.50430298 C-43.4496993 58.64337608 -43.31814756 64.7552219 -42.98266602 71.00805664 C-42.81167612 74.32849893 -42.79804167 77.62290901 -42.80664062 80.94726562 C-42.76176133 83.065318 -42.70803256 85.18320537 -42.64453125 87.30078125 C-42.63254448 88.77748039 -42.63254448 88.77748039 -42.62031555 90.28401184 C-42.34108006 94.54849892 -42.02907629 97.03215315 -38.84066772 100.03085327 C-33.95768958 103.24341514 -33.95768958 103.24341514 -28.2993927 103.76679993 C-25.83846286 103.13652691 -25.83846286 103.13652691 -24 101 C-27.63 99.02 -31.26 97.04 -35 95 C-35 81.14 -35 67.28 -35 53 C-31.7 51.14375 -28.4 49.2875 -25 47.375 C-10.97847484 39.46308509 3.00651103 31.46627551 16.7734375 23.1171875 C17.47662109 22.69083008 18.17980469 22.26447266 18.90429688 21.82519531 C20.17655851 21.05036402 21.44629134 20.27135791 22.71289062 19.48730469 C26.78389946 17 26.78389946 17 29 17 C29.495 18.485 29.495 18.485 30 20 C16.65524499 27.95886815 3.23282088 35.76932188 -10.27832031 43.44140625 C-16.27553495 46.85162096 -22.22478244 50.30850487 -28.08300781 53.95336914 C-30 55 -30 55 -32 55 C-32 67.54 -32 80.08 -32 93 C-30.35 93.66 -28.7 94.32 -27 95 C-26.01 95.556875 -25.02 96.11375 -24 96.6875 C-20.69333321 98.13416672 -19.34539532 98.2425754 -16 97 C-15.67 96.34 -15.34 95.68 -15 95 C-15.70374756 94.73872314 -16.40749512 94.47744629 -17.13256836 94.20825195 C-20.26670087 92.75707539 -22.50968393 91.40912708 -25 89 C-26.64994821 84.10905512 -26.70193499 79.300902 -26.5625 74.1875 C-26.54833038 73.15881302 -26.54833038 73.15881302 -26.53387451 72.10934448 C-26.23862222 59.37053998 -26.23862222 59.37053998 -22.53515625 55.5546875 C-19.25837217 53.64041501 -16.17148328 52.31905488 -12.61132812 51.05761719 C-7.22874642 48.87761121 -2.35203929 45.65432162 2.625 42.6875 C4.86618357 41.39573043 7.10968128 40.10796756 9.35546875 38.82421875 C13.66452783 36.35123173 17.95792346 33.85434836 22.23828125 31.33203125 C23.20233887 30.76846924 24.16639648 30.20490723 25.15966797 29.62426758 C26.97456563 28.56305171 28.78501856 27.49418757 30.59033203 26.41674805 C31.3945459 25.94922119 32.19875977 25.48169434 33.02734375 25 C33.72593506 24.5875 34.42452637 24.175 35.14428711 23.75 C37 23 37 23 40 24 C40 24.66 40 25.32 40 26 C39.33170166 26.3717334 38.66340332 26.7434668 37.97485352 27.12646484 C20.90528589 36.49899031 20.90528589 36.49899031 4.15087891 46.41552734 C0.43705053 48.70271887 -3.20283346 50.53432825 -7.26171875 52.14453125 C-14.97147164 55.38722927 -14.97147164 55.38722927 -21 61 C-22.49775668 65.45248954 -22.77876594 69.63471046 -22.8125 74.3125 C-22.83002319 76.03146484 -22.83002319 76.03146484 -22.84790039 77.78515625 C-22.55836945 82.5233144 -22.28257589 85.75257871 -18.79101562 89.1484375 C-14.14249987 92.15184072 -14.14249987 92.15184072 -8.7956543 92.90893555 C-6.66299092 92.37608786 -6.66299092 92.37608786 -4 91 C-4 90.34 -4 89.68 -4 89 C-5.299375 88.62875 -5.299375 88.62875 -6.625 88.25 C-10.39418124 86.85400695 -12.93235674 85.62227308 -16 83 C-18.23841898 77.51674109 -18.05491101 70.50481742 -16 65 C-12.45759306 60.62791337 -6.8055171 58.62470122 -1.80761719 56.34912109 C3.55868498 53.77049624 8.62210327 50.64225353 13.75 47.625 C15.97798318 46.3455931 18.20715016 45.06824546 20.4375 43.79296875 C24.69869566 41.34554174 28.92394228 38.84996013 33.125 36.30078125 C34.55247559 35.44782471 34.55247559 35.44782471 36.00878906 34.57763672 C37.79147834 33.51100806 39.56493652 32.42874368 41.32714844 31.32861328 C47.1066557 27.90428454 47.1066557 27.90428454 50.953125 28.31640625 C51.95859375 28.87199219 52.9640625 29.42757812 54 30 C55.21310349 30.43156151 55.21310349 30.43156151 56.45071411 30.87184143 C59.62425896 32.2434166 61.62737888 33.46311412 64 36 C65.45132898 41.72649721 65.1659958 47.34135146 64.9765625 53.2109375 C64.95789763 54.90625836 64.94366942 56.60163338 64.9336853 58.29702759 C64.89560591 62.74711554 64.79748086 67.19390907 64.68664551 71.6427002 C64.58411519 76.18712796 64.53862776 80.73209133 64.48828125 85.27734375 C64.38121783 94.18633889 64.21068393 103.09289493 64 112 C59.95838826 114.33212645 55.91671814 116.66415171 51.875 118.99609375 C50.97947418 119.51278531 50.97947418 119.51278531 50.06585693 120.03991508 C43.42030913 123.87410332 36.77430277 127.7074821 30.125 131.53515625 C29.08085937 132.13650391 28.03671875 132.73785156 26.9609375 133.35742188 C24.9248401 134.52992387 22.88836021 135.70176184 20.8515625 136.87304688 C15.16971601 140.14690678 9.53339493 143.47397068 3.9609375 146.93139648 C2 148 2 148 0 148 C-0.33 147.01 -0.66 146.02 -1 145 C10.07745966 138.44300786 21.20760787 131.98104928 32.36669922 125.56396484 C37.38568234 122.674784 42.39756103 119.77670231 47.375 116.81640625 C48.16648437 116.34589844 48.95796875 115.87539062 49.7734375 115.390625 C51.21849285 114.52866216 52.66134401 113.66298921 54.1015625 112.79296875 C58.78219289 110 58.78219289 110 61 110 C61 86.24 61 62.48 61 38 C59.35 37.34 57.7 36.68 56 36 C55.195625 35.443125 54.39125 34.88625 53.5625 34.3125 C50.26376745 32.62290528 48.50175519 32.96539051 45 34 C44.505 34.99 44.505 34.99 44 36 C47.63 37.98 51.26 39.96 55 42 C55 63.12 55 84.24 55 106 C50.91625 108.330625 46.8325 110.66125 42.625 113.0625 C32.65842599 118.75650553 22.69762629 124.46044977 12.75 130.1875 C11.6873291 130.79795166 10.6246582 131.40840332 9.52978516 132.03735352 C8.5247998 132.61670654 7.51981445 133.19605957 6.484375 133.79296875 C5.54400391 134.3348584 4.60363281 134.87674805 3.63476562 135.43505859 C1.19028081 136.8869811 -1.17589763 138.42039426 -3.546875 139.98828125 C-4.68640625 140.65214844 -5.8259375 141.31601563 -7 142 C-7.99 141.67 -8.98 141.34 -10 141 C-8.69204145 137.07612434 -7.2626032 136.7265064 -3.69140625 134.734375 C-2.56355713 134.09846436 -1.43570801 133.46255371 -0.27368164 132.80737305 C0.96334581 132.12152234 2.20040716 131.43573275 3.4375 130.75 C4.69792667 130.04245416 5.95776767 129.33386405 7.21704102 128.62426758 C9.16779897 127.5253528 11.11898349 126.42726378 13.0721283 125.33259583 C19.89428326 121.50897147 26.66774698 117.60293431 33.4375 113.6875 C34.52538818 113.06004883 35.61327637 112.43259766 36.73413086 111.78613281 C40.87063277 109.39921551 40.87063277 109.39921551 45 107 C45.86178864 106.59347198 46.72357727 106.18694397 47.61148071 105.76809692 C50.23596457 104.21362599 50.23596457 104.21362599 50.66856384 101.40177917 C50.68762283 100.36064468 50.70668182 99.31951019 50.72631836 98.24682617 C50.75821762 97.0651738 50.79011688 95.88352142 50.82298279 94.6660614 C50.82854691 93.38794083 50.83411102 92.10982025 50.83984375 90.79296875 C50.85648575 89.47968094 50.87312775 88.16639313 50.89027405 86.81330872 C50.92021341 84.03149902 50.92947625 81.2504653 50.92651367 78.46850586 C50.9260062 74.91241792 50.99416019 71.36133887 51.08037472 67.80643749 C51.14955489 64.40604312 51.14642329 61.00655723 51.15234375 57.60546875 C51.18827133 56.33342087 51.22419891 55.06137299 51.26121521 53.7507782 C51.28573243 47.13720881 51.28573243 47.13720881 47.84109497 41.80337524 C43.16726903 38.81406876 43.16726903 38.81406876 37.79307556 38.09465027 C35.66227614 38.62344879 35.66227614 38.62344879 33 40 C33 40.66 33 41.32 33 42 C33.86625 42.2475 34.7325 42.495 35.625 42.75 C39.52807905 44.19558483 41.9223833 45.14243923 45 48 C45.97280877 51.83013352 45.93605582 55.61840252 45.9375 59.5546875 C45.96034058 61.25614426 45.96034058 61.25614426 45.98364258 62.99197388 C46.0052486 65.39088133 46.01094893 67.78997696 46.00195312 70.18896484 C46.00000952 73.85704208 46.08317243 77.51672803 46.171875 81.18359375 C46.18229069 83.51560756 46.18766536 85.84765044 46.1875 88.1796875 C46.23668579 89.82056839 46.23668579 89.82056839 46.28686523 91.49459839 C46.23012614 94.62780623 46.06990623 97.05150377 45 100 C41.99618674 102.78200488 38.71811944 104.34972527 35 106 C33.96343262 106.60585937 32.92686523 107.21171875 31.85888672 107.8359375 C30.97475098 108.34382813 30.09061523 108.85171875 29.1796875 109.375 C28.16092529 109.9613623 27.14216309 110.54772461 26.0925293 111.15185547 C25.03074463 111.76174316 23.96895996 112.37163086 22.875 113 C15.94279219 116.98196009 9.020424 120.97605318 2.14453125 125.0546875 C1.05865723 125.69664062 -0.0272168 126.33859375 -1.14599609 127 C-3.21623714 128.22586362 -5.28312773 129.45740788 -7.34619141 130.6953125 C-8.27995605 131.24703125 -9.2137207 131.79875 -10.17578125 132.3671875 C-10.98958252 132.85300293 -11.80338379 133.33881836 -12.6418457 133.83935547 C-15.10606332 135.05220261 -17.29477 135.58723087 -20 136 C-20 135.01 -20 134.02 -20 133 C-18.99755249 132.4423999 -18.99755249 132.4423999 -17.97485352 131.87353516 C-1.03058267 122.58707619 -1.03058267 122.58707619 15.5896759 112.74172974 C19.26897072 110.48279886 22.87552858 108.58677101 26.88598633 106.97851562 C36.11600362 103.10206584 36.11600362 103.10206584 42.07128906 95.49569702 C43.4496993 89.35662392 43.31814756 83.2447781 42.98266602 76.99194336 C42.81167612 73.67150107 42.79804167 70.37709099 42.80664062 67.05273438 C42.76176133 64.934682 42.70803256 62.81679463 42.64453125 60.69921875 C42.63254448 59.22251961 42.63254448 59.22251961 42.62031555 57.71598816 C42.34108006 53.45150108 42.02907629 50.96784685 38.84066772 47.96914673 C33.95768958 44.75658486 33.95768958 44.75658486 28.2993927 44.23320007 C25.83846286 44.86347309 25.83846286 44.86347309 24 47 C27.63 48.98 31.26 50.96 35 53 C35 66.86 35 80.72 35 95 C31.74125 96.835625 28.4825 98.67125 25.125 100.5625 C14.01282163 106.83384934 2.95652981 113.19959535 -8.08984375 119.5859375 C-14.71283961 123.41480754 -21.35115853 127.21620476 -28 131 C-28.66 130.01 -29.32 129.02 -30 128 C-15.09111183 119.13666372 -0.10881891 110.40746155 14.93457031 101.77441406 C17.0870435 100.52846192 19.23158623 99.26875683 21.37011719 97.99902344 C22.45196289 97.35739258 23.53380859 96.71576172 24.6484375 96.0546875 C25.62731934 95.46929199 26.60620117 94.88389648 27.61474609 94.28076172 C30 93 30 93 32 93 C32 80.46 32 67.92 32 55 C30.35 54.34 28.7 53.68 27 53 C26.05125 52.443125 25.1025 51.88625 24.125 51.3125 C20.30221606 49.70693074 17.9919751 50.12176548 14 51 C16.18705005 53.43824788 18.0940645 54.49549976 21.0703125 55.78125 C24.04800445 57.61747053 24.88004493 58.6407188 26.00292969 62.00390625 C26.59456088 65.85317396 26.86072388 69.6131237 26.875 73.5 C26.881828 74.18184357 26.88865601 74.86368713 26.89569092 75.56619263 C26.85384553 81.21173598 26.65418893 86.73299686 23.22460938 91.43310547 C18.24655358 95.67009498 12.32375073 98.05959182 6.32910156 100.53222656 C0.44238343 103.12763207 -4.98093343 106.52368346 -10.5 109.8125 C-12.6865745 111.07288286 -14.87530939 112.32952675 -17.06640625 113.58203125 C-20.610646 115.61684316 -24.14229147 117.66851092 -27.65234375 119.76171875 C-28.30847656 120.14932373 -28.96460938 120.53692871 -29.640625 120.9362793 C-31.28396015 121.90910691 -32.92158436 122.89156507 -34.55859375 123.875 C-37 125 -37 125 -40 124 C-40 123.34 -40 122.68 -40 122 C-39.14341797 121.51926025 -39.14341797 121.51926025 -38.26953125 121.02880859 C-25.92145794 114.09160604 -13.62940817 107.0682014 -1.40625 99.91308594 C6.03420015 95.55800174 13.50001355 91.25175288 21 87 C21.29133413 82.79313516 21.46826779 78.58885739 21.625 74.375 C21.75068359 72.59029297 21.75068359 72.59029297 21.87890625 70.76953125 C21.97705403 67.25584068 21.93523832 64.39270825 21 61 C18.07245397 57.97426382 15.02099699 56.22311696 11 55 C8.12418955 55.12205031 6.64807042 55.73353154 4 57 C4 57.66 4 58.32 4 59 C4.86625 59.2475 5.7325 59.495 6.625 59.75 C10.39418124 61.14599305 12.93235674 62.37772692 16 65 C18.23841898 70.48325891 18.05491101 77.49518258 16 83 C12.45759306 87.37208663 6.8055171 89.37529878 1.80761719 91.65087891 C-3.55868498 94.22950376 -8.62210327 97.35774647 -13.75 100.375 C-15.97798318 101.6544069 -18.20715016 102.93175454 -20.4375 104.20703125 C-24.69869566 106.65445826 -28.92394228 109.15003987 -33.125 111.69921875 C-34.55247559 112.55217529 -34.55247559 112.55217529 -36.00878906 113.42236328 C-37.79147834 114.48899194 -39.56493652 115.57125632 -41.32714844 116.67138672 C-42.51872559 117.37739014 -42.51872559 117.37739014 -43.734375 118.09765625 C-44.75869629 118.72426147 -44.75869629 118.72426147 -45.80371094 119.36352539 C-50.36093091 120.68418707 -55.71040121 117.48117046 -59.77929688 115.41186523 C-63.40510959 113.01858761 -64.76870856 111.75743642 -66.04907227 107.56448364 C-66.63367665 103.18924851 -66.58494819 98.81557693 -66.53125 94.41015625 C-66.54375605 92.78020268 -66.55922655 91.15026943 -66.57751465 89.52037048 C-66.60269744 86.11084514 -66.58730696 82.70448529 -66.54394531 79.29516602 C-66.49247144 74.93992742 -66.54926562 70.5939419 -66.63764191 66.23957157 C-66.69260994 62.87504989 -66.68605274 59.51271594 -66.66172791 56.14791679 C-66.65810514 54.54399282 -66.67411393 52.93989245 -66.71070862 51.33638191 C-66.80730976 46.26147362 -66.66032517 41.82968142 -65 37 C-61.06808389 33.20212771 -57.01340317 31.20973485 -52 29 C-50.75579276 28.29705042 -49.51970937 27.57884941 -48.30297852 26.8293457 C-46.85556274 26.0108313 -46.85556274 26.0108313 -45.37890625 25.17578125 C-43.71384033 24.23025391 -43.71384033 24.23025391 -42.01513672 23.265625 C-40.8757666 22.62109375 -39.73639648 21.9765625 -38.5625 21.3125 C-28.49262169 15.60050411 -18.4872584 9.79539954 -8.57641602 3.80981445 C-7.73393311 3.30538818 -6.8914502 2.80096191 -6.0234375 2.28125 C-5.29044434 1.83845703 -4.55745117 1.39566406 -3.80224609 0.93945312 C-2 0 -2 0 0 0 Z " fill="#ECECEC" transform="translate(100,26)"/>
<path d="M0 0 C0.495 1.485 0.495 1.485 1 3 C-9.91997229 9.48958353 -20.92256302 15.82787892 -31.96368408 22.10839844 C-40.2256709 26.80951225 -48.42454104 31.590709 -56.5078125 36.59375 C-59 38 -59 38 -61 38 C-61 61.76 -61 85.52 -61 110 C-59.35 110.66 -57.7 111.32 -56 112 C-55.195625 112.556875 -54.39125 113.11375 -53.5625 113.6875 C-50.29357 115.36183 -48.48829005 114.89235327 -45 114 C-45 113.34 -45 112.68 -45 112 C-46.63766991 111.24319712 -48.28604719 110.50951567 -49.93896484 109.78662109 C-53.36558916 107.77899927 -54.75021365 106.84193948 -55.89385986 102.98712158 C-56.15816498 99.10755012 -56.12579516 95.29379449 -55.9765625 91.4140625 C-55.9578924 89.98779269 -55.94366664 88.5614584 -55.9336853 87.13510132 C-55.8956431 83.39492234 -55.79756341 79.65867667 -55.68664551 75.92004395 C-55.58402683 72.09958111 -55.53860978 68.27847731 -55.48828125 64.45703125 C-55.38128507 56.96956779 -55.21081281 49.48533654 -55 42 C-54.19595734 41.54120453 -53.39191467 41.08240906 -52.56350708 40.60971069 C-39.28114769 33.03011488 -26.00335446 25.44272499 -12.75 17.8125 C-11.6873291 17.20204834 -10.6246582 16.59159668 -9.52978516 15.96264648 C-4.47401724 13.04810207 0.5188133 10.1003602 5.37011719 6.85424805 C7 6 7 6 10 6 C9.83178711 7.78979492 9.83178711 7.78979492 9 10 C6.72875977 11.68481445 6.72875977 11.68481445 3.69140625 13.36328125 C2.56355713 13.99596924 1.43570801 14.62865723 0.27368164 15.28051758 C-0.96332061 15.95795152 -2.20038256 16.63527645 -3.4375 17.3125 C-4.69814433 18.01509146 -5.95798325 18.71912987 -7.21704102 19.42456055 C-9.8282864 20.88673637 -12.44251055 22.34337487 -15.05859375 23.796875 C-21.22482391 27.23251975 -27.32900841 30.77559124 -33.4375 34.3125 C-35.06933228 35.25379761 -35.06933228 35.25379761 -36.73413086 36.21411133 C-40.87068014 38.6008245 -40.87068014 38.6008245 -45 41 C-45.86178864 41.40652802 -46.72357727 41.81305603 -47.61148071 42.23190308 C-50.23596457 43.78637401 -50.23596457 43.78637401 -50.66856384 46.59822083 C-50.68762283 47.63935532 -50.70668182 48.68048981 -50.72631836 49.75317383 C-50.75821762 50.9348262 -50.79011688 52.11647858 -50.82298279 53.3339386 C-50.83132896 55.25111946 -50.83132896 55.25111946 -50.83984375 57.20703125 C-50.86480675 59.17696297 -50.86480675 59.17696297 -50.89027405 61.18669128 C-50.92021341 63.96850098 -50.92947625 66.7495347 -50.92651367 69.53149414 C-50.9260062 73.08758208 -50.99416019 76.63866113 -51.08037472 80.19356251 C-51.14955489 83.59395688 -51.14642329 86.99344277 -51.15234375 90.39453125 C-51.18827133 91.66657913 -51.22419891 92.93862701 -51.26121521 94.2492218 C-51.28573243 100.86279119 -51.28573243 100.86279119 -47.84109497 106.19662476 C-43.16726903 109.18593124 -43.16726903 109.18593124 -37.79307556 109.90534973 C-35.66227614 109.37655121 -35.66227614 109.37655121 -33 108 C-33 107.34 -33 106.68 -33 106 C-34.299375 105.62875 -34.299375 105.62875 -35.625 105.25 C-39.52375492 103.8060167 -41.92065231 102.84782373 -45 100 C-46.005143 96.1982183 -46.00775679 92.43255301 -46.04296875 88.515625 C-46.07648186 86.82128326 -46.07648186 86.82128326 -46.110672 85.0927124 C-46.14542506 82.70228729 -46.16369626 80.31157422 -46.16674805 77.92089844 C-46.1873694 74.27310171 -46.3090164 70.63764629 -46.43554688 66.9921875 C-46.71490159 50.74186097 -46.71490159 50.74186097 -43.88018799 46.20959473 C-40.53941769 42.92349935 -36.31838878 41.56803909 -32 40 C-29.75817112 38.75419509 -27.53880682 37.46710613 -25.34375 36.140625 C-23.06395119 34.84120062 -20.78266443 33.54438381 -18.5 32.25 C-16.05304463 30.86127665 -13.60650764 29.47181824 -11.16015625 28.08203125 C-10.55603409 27.73914566 -9.95191193 27.39626007 -9.32948303 27.04298401 C-5.40819641 24.81342082 -1.50925694 22.54876539 2.37890625 20.26171875 C3.34441406 19.69743164 4.30992188 19.13314453 5.3046875 18.55175781 C7.10499932 17.4979634 8.90081617 16.43644104 10.69140625 15.36621094 C11.48546875 14.90375977 12.27953125 14.44130859 13.09765625 13.96484375 C13.78351807 13.5587085 14.46937988 13.15257324 15.17602539 12.73413086 C17 12 17 12 20 13 C20 13.66 20 14.32 20 15 C19.33170166 15.3717334 18.66340332 15.7434668 17.97485352 16.12646484 C1.03058267 25.41292381 1.03058267 25.41292381 -15.5896759 35.25827026 C-19.26897072 37.51720114 -22.87552858 39.41322899 -26.88598633 41.02148438 C-36.11600362 44.89793416 -36.11600362 44.89793416 -42.07128906 52.50430298 C-43.4496993 58.64337608 -43.31814756 64.7552219 -42.98266602 71.00805664 C-42.81167612 74.32849893 -42.79804167 77.62290901 -42.80664062 80.94726562 C-42.76176133 83.065318 -42.70803256 85.18320537 -42.64453125 87.30078125 C-42.63254448 88.77748039 -42.63254448 88.77748039 -42.62031555 90.28401184 C-42.34108006 94.54849892 -42.02907629 97.03215315 -38.84066772 100.03085327 C-33.95768958 103.24341514 -33.95768958 103.24341514 -28.2993927 103.76679993 C-25.83846286 103.13652691 -25.83846286 103.13652691 -24 101 C-27.63 99.02 -31.26 97.04 -35 95 C-35 81.14 -35 67.28 -35 53 C-31.7 51.14375 -28.4 49.2875 -25 47.375 C-10.97847484 39.46308509 3.00651103 31.46627551 16.7734375 23.1171875 C17.47662109 22.69083008 18.17980469 22.26447266 18.90429688 21.82519531 C20.17655851 21.05036402 21.44629134 20.27135791 22.71289062 19.48730469 C26.78389946 17 26.78389946 17 29 17 C29.495 18.485 29.495 18.485 30 20 C16.65524499 27.95886815 3.23282088 35.76932188 -10.27832031 43.44140625 C-16.27553495 46.85162096 -22.22478244 50.30850487 -28.08300781 53.95336914 C-30 55 -30 55 -32 55 C-32 67.54 -32 80.08 -32 93 C-30.35 93.66 -28.7 94.32 -27 95 C-26.01 95.556875 -25.02 96.11375 -24 96.6875 C-20.69333321 98.13416672 -19.34539532 98.2425754 -16 97 C-15.67 96.34 -15.34 95.68 -15 95 C-15.70374756 94.73872314 -16.40749512 94.47744629 -17.13256836 94.20825195 C-20.26670087 92.75707539 -22.50968393 91.40912708 -25 89 C-26.64994821 84.10905512 -26.70193499 79.300902 -26.5625 74.1875 C-26.54833038 73.15881302 -26.54833038 73.15881302 -26.53387451 72.10934448 C-26.23862222 59.37053998 -26.23862222 59.37053998 -22.53515625 55.5546875 C-19.25837217 53.64041501 -16.17148328 52.31905488 -12.61132812 51.05761719 C-7.22874642 48.87761121 -2.35203929 45.65432162 2.625 42.6875 C4.86618357 41.39573043 7.10968128 40.10796756 9.35546875 38.82421875 C13.66452783 36.35123173 17.95792346 33.85434836 22.23828125 31.33203125 C23.20233887 30.76846924 24.16639648 30.20490723 25.15966797 29.62426758 C26.97456563 28.56305171 28.78501856 27.49418757 30.59033203 26.41674805 C31.3945459 25.94922119 32.19875977 25.48169434 33.02734375 25 C33.72593506 24.5875 34.42452637 24.175 35.14428711 23.75 C37 23 37 23 40 24 C40 24.66 40 25.32 40 26 C39.33170166 26.3717334 38.66340332 26.7434668 37.97485352 27.12646484 C20.90528589 36.49899031 20.90528589 36.49899031 4.15087891 46.41552734 C0.43705053 48.70271887 -3.20283346 50.53432825 -7.26171875 52.14453125 C-14.97147164 55.38722927 -14.97147164 55.38722927 -21 61 C-22.49775668 65.45248954 -22.77876594 69.63471046 -22.8125 74.3125 C-22.83002319 76.03146484 -22.83002319 76.03146484 -22.84790039 77.78515625 C-22.55836945 82.5233144 -22.28257589 85.75257871 -18.79101562 89.1484375 C-14.14249987 92.15184072 -14.14249987 92.15184072 -8.7956543 92.90893555 C-6.66299092 92.37608786 -6.66299092 92.37608786 -4 91 C-4 90.34 -4 89.68 -4 89 C-5.299375 88.62875 -5.299375 88.62875 -6.625 88.25 C-10.39766221 86.8527177 -12.93470966 85.63156219 -16 83 C-17.12043291 80.10819442 -17.28289228 77.39579733 -17.3125 74.3125 C-17.32265137 73.50901123 -17.33280273 72.70552246 -17.34326172 71.87768555 C-17.13679766 68.4248367 -16.80646005 65.95389481 -14.53369141 63.265625 C-10.45705478 59.95288099 -5.92773622 57.75515998 -1 56 C-0.34 56.33 0.32 56.66 1 57 C-0.43643121 60.65353155 -2.05835031 61.93978166 -5.5 63.75 C-6.2940625 64.17796875 -7.088125 64.6059375 -7.90625 65.046875 C-10 66 -10 66 -12 66 C-12 71.28 -12 76.56 -12 82 C-10.35 82.66 -8.7 83.32 -7 84 C-5.989375 84.515625 -4.97875 85.03125 -3.9375 85.5625 C-1.55344342 86.72916598 0.41745801 87.50335731 3 88 C1.49790876 92.11371369 -0.83220216 93.38052007 -4.58203125 95.46875 C-5.4253878 95.94497299 -5.4253878 95.94497299 -6.28578186 96.43081665 C-8.12220944 97.46467297 -9.96679038 98.48282082 -11.8125 99.5 C-13.72249333 100.56415231 -15.63102973 101.6308852 -17.53948975 102.69778442 C-18.82569941 103.41636157 -20.1126914 104.13354012 -21.40045166 104.84933472 C-25.4190987 107.08927938 -29.38107006 109.4044324 -33.31640625 111.7890625 C-34.26217529 112.35560547 -35.20794434 112.92214844 -36.18237305 113.50585938 C-37.93916882 114.56226245 -39.68727888 115.63328671 -41.42504883 116.72070312 C-42.21032959 117.18669922 -42.99561035 117.65269531 -43.8046875 118.1328125 C-44.47483887 118.54418457 -45.14499023 118.95555664 -45.83544922 119.37939453 C-50.37127762 120.6798768 -55.7328935 117.46973163 -59.77929688 115.41186523 C-63.40510959 113.01858761 -64.76870856 111.75743642 -66.04907227 107.56448364 C-66.63367665 103.18924851 -66.58494819 98.81557693 -66.53125 94.41015625 C-66.54375605 92.78020268 -66.55922655 91.15026943 -66.57751465 89.52037048 C-66.60269744 86.11084514 -66.58730696 82.70448529 -66.54394531 79.29516602 C-66.49247144 74.93992742 -66.54926562 70.5939419 -66.63764191 66.23957157 C-66.69260994 62.87504989 -66.68605274 59.51271594 -66.66172791 56.14791679 C-66.65810514 54.54399282 -66.67411393 52.93989245 -66.71070862 51.33638191 C-66.80730976 46.26147362 -66.66032517 41.82968142 -65 37 C-61.06808389 33.20212771 -57.01340317 31.20973485 -52 29 C-50.75579276 28.29705042 -49.51970937 27.57884941 -48.30297852 26.8293457 C-46.85556274 26.0108313 -46.85556274 26.0108313 -45.37890625 25.17578125 C-43.71384033 24.23025391 -43.71384033 24.23025391 -42.01513672 23.265625 C-40.8757666 22.62109375 -39.73639648 21.9765625 -38.5625 21.3125 C-28.49262169 15.60050411 -18.4872584 9.79539954 -8.57641602 3.80981445 C-7.73393311 3.30538818 -6.8914502 2.80096191 -6.0234375 2.28125 C-5.29044434 1.83845703 -4.55745117 1.39566406 -3.80224609 0.93945312 C-2 0 -2 0 0 0 Z " fill="#ECECEC" transform="translate(100,26)"/>
<path d="M0 0 C0.495 1.485 0.495 1.485 1 3 C-9.91997229 9.48958353 -20.92256302 15.82787892 -31.96368408 22.10839844 C-40.2256709 26.80951225 -48.42454104 31.590709 -56.5078125 36.59375 C-59 38 -59 38 -61 38 C-61 61.76 -61 85.52 -61 110 C-59.35 110.66 -57.7 111.32 -56 112 C-55.236875 112.556875 -54.47375 113.11375 -53.6875 113.6875 C-49.7874712 115.59216523 -47.22101185 114.78696831 -43 114 C-43.125 115.875 -43.125 115.875 -44 118 C-46.59765625 119.37109375 -46.59765625 119.37109375 -50 120 C-52.73384427 118.85030765 -54.85873515 117.76399876 -57.3125 116.1875 C-57.94478516 115.80529297 -58.57707031 115.42308594 -59.22851562 115.02929688 C-63.69406765 112.30593235 -63.69406765 112.30593235 -65 111 C-65.16299964 108.74351936 -65.25489099 106.48188717 -65.31982422 104.22045898 C-65.34085205 103.51139908 -65.36187988 102.80233917 -65.38354492 102.0717926 C-65.56681499 95.51150299 -65.67266293 88.94941108 -65.75568962 82.3871603 C-65.81225781 77.97787018 -65.89366384 73.57223165 -66.03564453 69.16479492 C-66.17236532 64.9032959 -66.24456512 60.64510271 -66.27234268 56.38154793 C-66.29376166 54.76049427 -66.33770366 53.13956896 -66.405056 51.51977348 C-66.60813425 46.39856137 -66.57432429 41.9113647 -65 37 C-61.08151874 33.16539814 -57.03525254 31.19950742 -52 29 C-50.75538548 28.29777178 -49.51914371 27.57976691 -48.30297852 26.8293457 C-46.85556274 26.0108313 -46.85556274 26.0108313 -45.37890625 25.17578125 C-43.71384033 24.23025391 -43.71384033 24.23025391 -42.01513672 23.265625 C-40.8757666 22.62109375 -39.73639648 21.9765625 -38.5625 21.3125 C-28.49262169 15.60050411 -18.4872584 9.79539954 -8.57641602 3.80981445 C-7.73393311 3.30538818 -6.8914502 2.80096191 -6.0234375 2.28125 C-5.29044434 1.83845703 -4.55745117 1.39566406 -3.80224609 0.93945312 C-2 0 -2 0 0 0 Z " fill="#D4D4D4" transform="translate(100,26)"/>
<path d="M0 0 C0.9075 0.53625 1.815 1.0725 2.75 1.625 C3.38164063 1.97046875 4.01328125 2.3159375 4.6640625 2.671875 C6.38192064 3.61635477 8.06899045 4.61639427 9.75 5.625 C9.75 10.905 9.75 16.185 9.75 21.625 C-0.27457956 27.73754851 -0.27457956 27.73754851 -4.5 27.25 C-5.4075 26.71375 -6.315 26.1775 -7.25 25.625 C-7.88164063 25.27953125 -8.51328125 24.9340625 -9.1640625 24.578125 C-10.88192064 23.63364523 -12.56899045 22.63360573 -14.25 21.625 C-14.25 16.345 -14.25 11.065 -14.25 5.625 C-4.22542044 -0.48754851 -4.22542044 -0.48754851 0 0 Z " fill="#040404" transform="translate(102.25,86.375)"/>
<path d="M0 0 C-0.16821289 1.78979492 -0.16821289 1.78979492 -1 4 C-3.27124023 5.68481445 -3.27124023 5.68481445 -6.30859375 7.36328125 C-7.43644287 7.99596924 -8.56429199 8.62865723 -9.72631836 9.28051758 C-10.96332061 9.95795152 -12.20038256 10.63527645 -13.4375 11.3125 C-14.69814433 12.01509146 -15.95798325 12.71912987 -17.21704102 13.42456055 C-19.8282864 14.88673637 -22.44251055 16.34337487 -25.05859375 17.796875 C-31.22482391 21.23251975 -37.32900841 24.77559124 -43.4375 28.3125 C-44.52538818 28.94003174 -45.61327637 29.56756348 -46.73413086 30.21411133 C-50.87068014 32.6008245 -50.87068014 32.6008245 -55 35 C-56.29611961 35.60782822 -56.29611961 35.60782822 -57.61842346 36.22793579 C-60.24674158 37.78695244 -60.24674158 37.78695244 -60.62145996 40.62513733 C-60.61940552 41.67833664 -60.61735107 42.73153595 -60.61523438 43.81665039 C-60.62453979 45.01121353 -60.63384521 46.20577667 -60.64343262 47.4365387 C-60.61883972 49.37254189 -60.61883972 49.37254189 -60.59375 51.34765625 C-60.59203908 52.68379102 -60.59210439 54.01992915 -60.59387207 55.35606384 C-60.59221877 58.1547766 -60.57351937 60.95268835 -60.54199219 63.7512207 C-60.50227452 67.3417996 -60.49795081 70.93133113 -60.50545502 74.52208805 C-60.50852139 77.28020354 -60.49641704 80.03808268 -60.47932434 82.79614067 C-60.46885784 84.7648721 -60.4684464 86.73364861 -60.46813965 88.70240784 C-60.45222778 89.89381882 -60.43631592 91.0852298 -60.41992188 92.31274414 C-60.41150269 93.36514786 -60.4030835 94.41755157 -60.39440918 95.50184631 C-60.26425415 96.32623703 -60.13409912 97.15062775 -60 98 C-59.01 98.66 -58.02 99.32 -57 100 C-57.33 100.99 -57.66 101.98 -58 103 C-62.75 101.125 -62.75 101.125 -65 100 C-65 78.88 -65 57.76 -65 36 C-60.91625 33.669375 -56.8325 31.33875 -52.625 28.9375 C-42.65842599 23.24349447 -32.69762629 17.53955023 -22.75 11.8125 C-21.6873291 11.20204834 -20.6246582 10.59159668 -19.52978516 9.96264648 C-14.47401724 7.04810207 -9.4811867 4.1003602 -4.62988281 0.85424805 C-3 0 -3 0 0 0 Z " fill="#D6D6D6" transform="translate(110,32)"/>
<path d="M0 0 C4.75 0.875 4.75 0.875 7 2 C7 23.12 7 44.24 7 66 C0.874375 69.4959375 0.874375 69.4959375 -5.375 73.0625 C-15.34157401 78.75650553 -25.30237371 84.46044977 -35.25 90.1875 C-36.3126709 90.79795166 -37.3753418 91.40840332 -38.47021484 92.03735352 C-39.4752002 92.61670654 -40.48018555 93.19605957 -41.515625 93.79296875 C-42.45599609 94.3348584 -43.39636719 94.87674805 -44.36523438 95.43505859 C-46.80971919 96.8869811 -49.17589763 98.42039426 -51.546875 99.98828125 C-52.68640625 100.65214844 -53.8259375 101.31601563 -55 102 C-55.99 101.67 -56.98 101.34 -58 101 C-56.69204145 97.07612434 -55.2626032 96.7265064 -51.69140625 94.734375 C-50.56355713 94.09846436 -49.43570801 93.46255371 -48.27368164 92.80737305 C-47.03665419 92.12152234 -45.79959284 91.43573275 -44.5625 90.75 C-43.30207333 90.04245416 -42.04223233 89.33386405 -40.78295898 88.62426758 C-38.83220103 87.5253528 -36.88101651 86.42726378 -34.9278717 85.33259583 C-28.10571674 81.50897147 -21.33225302 77.60293431 -14.5625 73.6875 C-13.47461182 73.06004883 -12.38672363 72.43259766 -11.26586914 71.78613281 C-7.12936723 69.39921551 -7.12936723 69.39921551 -3 67 C-2.13493835 66.59543579 -1.26987671 66.19087158 -0.37860107 65.77404785 C2.25167272 64.21253298 2.25167272 64.21253298 2.60127258 61.36140442 C2.584618 59.77255684 2.584618 59.77255684 2.56762695 58.15161133 C2.5672493 56.9505928 2.56687164 55.74957428 2.56648254 54.51216125 C2.54067612 53.21521835 2.51486969 51.91827545 2.48828125 50.58203125 C2.47895396 49.24111752 2.47183744 47.90018674 2.46684265 46.55924988 C2.44776531 43.03244862 2.39866102 39.50667949 2.34332275 35.98028564 C2.29214444 32.38087935 2.26933182 28.78130601 2.24414062 25.18164062 C2.19054093 18.12067187 2.10522104 11.06040337 2 4 C1.34 3.67 0.68 3.34 0 3 C0 2.01 0 1.02 0 0 Z " fill="#D0D0D0" transform="translate(148,66)"/>
<path d="M0 0 C0.495 1.485 0.495 1.485 1 3 C-6.93157246 7.7136202 -14.8887482 12.379055 -22.90625 16.9453125 C-23.50930969 17.28890808 -24.11236938 17.63250366 -24.73370361 17.98651123 C-27.74076714 19.69889592 -30.74960312 21.4080741 -33.76074219 23.11328125 C-40.76407713 27.09475167 -47.6416104 31.21487535 -54.44433594 35.52685547 C-57 37 -57 37 -59 37 C-57.65459284 32.51689754 -56.08735057 31.00841876 -52.03125 28.7578125 C-50.99685791 28.17346436 -49.96246582 27.58911621 -48.89672852 26.98706055 C-47.77580811 26.37258057 -46.6548877 25.75810059 -45.5 25.125 C-43.74709069 24.13991938 -41.99419417 23.15481512 -40.24208069 22.1683197 C-38.40972467 21.13893452 -36.573988 20.11578056 -34.73779297 19.09326172 C-28.64191852 15.69010215 -22.60600893 12.1824694 -16.5625 8.6875 C-15.45003906 8.0476416 -14.33757812 7.4077832 -13.19140625 6.74853516 C-12.16015625 6.15476074 -11.12890625 5.56098633 -10.06640625 4.94921875 C-9.15834229 4.42674561 -8.25027832 3.90427246 -7.31469727 3.3659668 C-1.61090259 0 -1.61090259 0 0 0 Z " fill="#E7E7E7" transform="translate(100,26)"/>
<path d="M0 0 C0.66 0.33 1.32 0.66 2 1 C0.50113408 5.07375511 -1.75222582 6.33213486 -5.4765625 8.3984375 C-6.61150146 9.0363623 -7.74644043 9.67428711 -8.91577148 10.33154297 C-10.15210975 11.01282461 -11.38852089 11.69397402 -12.625 12.375 C-14.52681717 13.43761417 -16.42653179 14.50392424 -18.32621765 15.57034302 C-19.62246511 16.2975987 -20.91943945 17.02356024 -22.21711731 17.7482605 C-29.69744896 21.93067951 -37.0731215 26.28867539 -44.44580078 30.65771484 C-45.36989746 31.20121582 -46.29399414 31.7447168 -47.24609375 32.3046875 C-48.44770142 33.0160083 -48.44770142 33.0160083 -49.67358398 33.74169922 C-52.05978581 35.03233666 -54.46380432 36.04263743 -57 37 C-57 35.68 -57 34.36 -57 33 C-56.2879541 32.59386475 -55.5759082 32.18772949 -54.84228516 31.76928711 C-41.36069686 24.07768848 -27.8861187 16.37412959 -14.4375 8.625 C-13.33293457 7.98941162 -12.22836914 7.35382324 -11.09033203 6.69897461 C-10.0692334 6.10995361 -9.04813477 5.52093262 -7.99609375 4.9140625 C-7.10075928 4.3979541 -6.2054248 3.8818457 -5.28295898 3.35009766 C-3.48811936 2.28866432 -1.73499745 1.15666497 0 0 Z " fill="#E9E9E9" transform="translate(148,131)"/>
<path d="M0 0 C-0.13305664 1.76782227 -0.13305664 1.76782227 -1 4 C-3.52514648 5.84350586 -3.52514648 5.84350586 -6.87109375 7.71484375 C-7.46745132 8.05246231 -8.0638089 8.39008087 -8.67823792 8.7379303 C-10.59139629 9.81672257 -12.51419588 10.87692345 -14.4375 11.9375 C-15.69790559 12.64665021 -16.95767875 13.35692573 -18.21679688 14.06835938 C-25.04701109 17.90920389 -31.9440251 21.58767584 -39 25 C-38.05432745 21.68908034 -37.3049146 20.22870092 -34.51318359 18.13476562 C-33.48531738 17.56435547 -32.45745117 16.99394531 -31.3984375 16.40625 C-30.26792969 15.76816406 -29.13742188 15.13007812 -27.97265625 14.47265625 C-26.77373062 13.81456986 -25.57450972 13.15702115 -24.375 12.5 C-23.198443 11.84383698 -22.02265292 11.18629679 -20.84765625 10.52734375 C-18.58578171 9.25936199 -16.32121562 7.99616706 -14.05371094 6.73828125 C-11.42651698 5.24278869 -8.88526474 3.67786656 -6.3515625 2.03125 C-3 0 -3 0 0 0 Z " fill="#E8E8E8" transform="translate(110,32)"/>
<path d="M0 0 C0.66 0.33 1.32 0.66 2 1 C1.00269864 3.4932534 0.34925469 4.77467439 -1.9375 6.25 C-4 7 -4 7 -7 7 C-7 6.01 -7 5.02 -7 4 C-1.7265625 0.77734375 -1.7265625 0.77734375 0 0 Z " fill="#E4E4E4" transform="translate(87,155)"/>
</svg>
